<svg xmlns="http://www.w3.org/2000/svg" width="420" height="500">
  <defs>
    <marker id="arrow" markerWidth="10" markerHeight="10" refX="6" refY="3" orient="auto" markerUnits="strokeWidth">
      <path d="M0,0 L0,6 L9,3 z" fill="black" />
    </marker>
  </defs>
  <rect x="130" y="10" width="160" height="40" fill="#e0e0e0" stroke="#000" />
  <text x="210" y="35" text-anchor="middle" font-family="sans-serif" font-size="12">Create dirs</text>

  <rect x="130" y="80" width="160" height="40" fill="#e0e0e0" stroke="#000" />
  <text x="210" y="105" text-anchor="middle" font-family="sans-serif" font-size="12">Setup venv</text>

  <rect x="130" y="150" width="160" height="40" fill="#e0e0e0" stroke="#000" />
  <text x="210" y="175" text-anchor="middle" font-family="sans-serif" font-size="12">Install deps</text>

  <rect x="130" y="220" width="160" height="40" fill="#e0e0e0" stroke="#000" />
  <text x="210" y="245" text-anchor="middle" font-family="sans-serif" font-size="12">Init project/app</text>

  <rect x="130" y="290" width="160" height="40" fill="#e0e0e0" stroke="#000" />
  <text x="210" y="315" text-anchor="middle" font-family="sans-serif" font-size="12">Update settings</text>

  <rect x="130" y="360" width="160" height="40" fill="#e0e0e0" stroke="#000" />
  <text x="210" y="385" text-anchor="middle" font-family="sans-serif" font-size="12">Migrate & collect</text>

  <rect x="130" y="430" width="160" height="40" fill="#e0e0e0" stroke="#000" />
  <text x="210" y="455" text-anchor="middle" font-family="sans-serif" font-size="12">Apache config</text>

  <line x1="210" y1="50" x2="210" y2="80" stroke="#000" marker-end="url(#arrow)" />
  <line x1="210" y1="120" x2="210" y2="150" stroke="#000" marker-end="url(#arrow)" />
  <line x1="210" y1="190" x2="210" y2="220" stroke="#000" marker-end="url(#arrow)" />
  <line x1="210" y1="260" x2="210" y2="290" stroke="#000" marker-end="url(#arrow)" />
  <line x1="210" y1="330" x2="210" y2="360" stroke="#000" marker-end="url(#arrow)" />
  <line x1="210" y1="400" x2="210" y2="430" stroke="#000" marker-end="url(#arrow)" />
</svg>
